<?xml version="1.0" encoding="utf-8"?>
<!-- Generator: Adobe Illustrator 24.2.3, SVG Export Plug-In . SVG Version: 6.00 Build 0)  -->
<svg version="1.1" id="Layer_1" xmlns="http://www.w3.org/2000/svg" xmlns:xlink="http://www.w3.org/1999/xlink" x="0px" y="0px"
	 viewBox="0 0 595.28 841.89" style="enable-background:new 0 0 595.28 841.89;" xml:space="preserve">
<style type="text/css">
	.st0{stroke:#FFFFFF;stroke-miterlimit:10;enable-background:new    ;}
	.st1{fill:#FFFFFF;stroke:#FFFFFF;stroke-miterlimit:10;}
	.st2{fill:#FFFFFF;}
	.st3{fill:#FFFFFF;stroke:#FFFFFF;stroke-width:1;stroke-miterlimit:10.0004;}
</style>
<polygon class="st0" points="187.35,412.99 40.03,512.08 82.27,556.67 172.31,496.38 224.77,461.26 252.61,432.67 243.02,420.94 
	271.41,399.72 282.91,415.64 313.68,395.01 306.06,407.33 297.64,420.94 297.64,439.53 305.03,448.82 314.76,456.34 332.9,455.02 
	360.77,444.84 379.79,424.05 385.99,410.33 384.22,397.95 378.02,386.89 366.52,382.46 348.83,379.81 329.78,384.21 358.12,365.21 
	346.53,349.35 377.14,332.03 387.76,343.09 429.79,326.28 569.58,232.05 553.66,205.95 538.17,178.96 392.18,276.73 362.98,306.81 
	369.18,320.53 342.62,343.99 320.96,314.33 248.4,363 266.1,392.2 233.48,409.27 224.96,398.83 "/>
<polygon class="st1" points="413.86,325.84 393.73,334.24 382.64,322.99 371.39,307.26 386.87,288.23 "/>
<polygon class="st2" points="214.95,439.64 203.48,424.82 197.09,413.87 220.53,405.66 240.85,431.89 227.61,451.48 "/>
<rect x="181.56" y="423.1" transform="matrix(0.8237 -0.5671 0.5671 0.8237 -222.5556 183.6873)" class="st3" width="5.04" height="53.21"/>
<rect x="143.84" y="449.07" transform="matrix(0.8237 -0.5671 0.5671 0.8237 -243.9342 166.8741)" class="st3" width="5.04" height="53.21"/>
<rect x="95.42" y="482.41" transform="matrix(0.8237 -0.5671 0.5671 0.8237 -271.3801 145.2971)" class="st3" width="5.04" height="53.21"/>
<rect x="518.22" y="199.42" transform="matrix(0.8237 -0.5671 0.5671 0.8237 -36.3493 335.1572)" class="st3" width="5.04" height="53.21"/>
<rect x="463.07" y="237.4" transform="matrix(0.8237 -0.5671 0.5671 0.8237 -67.6087 310.58)" class="st3" width="5.04" height="53.21"/>
<rect x="424.3" y="264.06" transform="matrix(0.8237 -0.5671 0.5671 0.8237 -89.5613 293.3184)" class="st3" width="5.12" height="53.21"/>
<rect x="50.43" y="480.97" transform="matrix(0.8237 -0.5671 0.5671 0.8237 -251.2943 161.093)" class="st3" width="165.91" height="7.3"/>
<rect x="394.5" y="252.18" transform="matrix(0.8237 -0.5671 0.5671 0.8237 -60.8861 315.8645)" class="st3" width="165.91" height="7.3"/>
</svg>
